<svg width="981" height="494" viewBox="0 0 981 494" fill="none" xmlns="http://www.w3.org/2000/svg">
<path d="M863.8 481.8V10.8H922.8C950.414 10.8 972.8 33.1858 972.8 60.8V431.8C972.8 459.414 950.414 481.8 922.8 481.8H863.8Z" fill="black"/>
<rect x="76.8" y="481.8" width="27" height="853" rx="5" transform="rotate(-90 76.8 481.8)" fill="black"/>
<rect x="76.8" y="37.8" width="27" height="853" rx="5" transform="rotate(-90 76.8 37.8)" fill="black"/>
<path d="M61.8001 481.8C34.1858 481.8 11.8 459.414 11.8 431.8L11.8 60.8001C11.8 33.1858 34.1858 10.8 61.8 10.8H79.8C99.13 10.8 114.8 26.4701 114.8 45.8L114.8 446.8C114.8 466.13 99.13 481.8 79.8001 481.8H61.8001Z" fill="black"/>
<path d="M123.2 449.2L123.2 46.8L854.3 46.8V449.2L123.2 449.2ZM111.8 35.4001C110.8 36.4001 109.7 38.5 109.7 40.6L109.7 455.4C109.7 457.5 110.7 458.5 111.8 460.6C112.8 461.6 114.9 462.7 117 462.7L861.6 462.7C863.7 462.7 864.7 461.7 866.8 460.6C867.8 459.6 868.9 457.5 868.9 455.4V39.5001C868.9 37.4001 867.9 36.4 866.8 34.3C865.8 32.2 863.7 32.2001 861.6 32.2001L116.9 32.2001C114.9 33.4001 112.8 34.4001 111.8 35.4001ZM69.2001 214.9C68.2001 213.9 66.1 212.8 64 212.8C61.9 212.8 60.9 213.8 58.8 214.9C57.8 215.9 56.7001 218 56.7001 220.1V283.4C56.7001 285.5 57.7 286.5 58.8 288.6C59.8 289.6 61.9 290.7 64 290.7C66.1 290.7 67.1001 289.7 69.2001 288.6C70.2001 287.6 71.3 285.5 71.3 283.4V220C71.3 218 70.3001 216.9 69.2001 214.9ZM896.8 231.4C900.9 227.3 906.1 226.2 912.4 226.2H914.5C920.7 226.2 925.9 228.3 930.1 233.5C934.2 237.6 937.4 243.9 937.4 250.1V251.1C937.4 257.3 934.3 263.5 930.1 267.7C926 271.8 920.8 275 914.5 275H912.4C906.2 275 902 272.9 897.9 268.8L896.9 267.8C895.9 266.8 894.8 265.7 893.8 264.7C891.7 262.6 890.7 259.5 889.7 256.4C889.7 255.4 888.7 253.3 888.7 252.3V250.2C888.7 248.1 888.7 245 889.7 242.9C890.7 240.8 891.8 238.8 892.8 236.7L893.8 235.7C894.7 233.5 895.8 232.5 896.8 231.4ZM876.1 258.4C877.1 263.6 879.2 267.7 882.3 271.9C883.3 272.9 884.4 274 885.4 275C885.4 276 886.4 277.1 887.5 278.1C893.7 284.3 902 287.4 911.4 288.5H914.5C923.8 288.5 932.1 284.4 939.4 277.1C946.7 269.8 950.8 261.5 950.8 251.2V249.1C950.8 239.8 946.7 230.4 939.4 223.2C932.1 215.9 923.8 212.8 913.5 212.8H911.4C902.1 212.8 893.8 215.9 886.5 222.1L885.5 223.1L884.5 224.1C883.5 225.1 882.4 227.2 881.4 228.2C879.3 230.3 878.3 232.3 877.3 235.5C875.2 239.6 874.2 243.8 874.2 249V251.1C875 253.2 875 255.3 876.1 258.4ZM14.3 71.7001V69.6C15.3 54 21.6 41.6 33 32.3C45.4 21.9 60.0001 15.7001 78.6001 15.7001L903 15.7001C920.6 15.7001 936.2 21.9 948.6 32.3C960 41.6 966.2 54.1 967.3 69.6V420.2C967.3 437.8 961.1 452.3 948.6 463.8C936.2 474.2 920.6 480.4 903 480.4L78.6001 480.4C61.0001 480.4 45.4 474.2 33 463.8C20.6 453.4 14.3 438.9 14.3 420.2L14.3 71.7001V71.7001ZM1.80005 66.6C1.80005 67.6 0.800049 68.7001 0.800049 69.7001L0.800049 420.2C0.800049 442 8.10005 460.6 24.7001 474.1C39.2001 486.5 56.8001 493.8 78.6001 493.8L904.1 493.8C925.9 493.8 943.5 486.5 958 474.1C973.6 460.6 980.8 443 980.8 420.2V68.6V67.6C978.7 48.9 971.5 33.4001 958 20.9001C943.5 7.40009 924.8 1.20007 904.1 0.200073L78.6001 0.200073C56.8001 0.200073 39.2001 7.50009 24.7001 20.9001C10.1 33.4001 2.90005 48.9 1.80005 66.6Z" fill="white"/>
</svg>
