<svg width="77" height="65" viewBox="0 0 77 65" fill="none" xmlns="http://www.w3.org/2000/svg">
<path d="M76.0377 40.1333C76.0377 59.7484 50.027 50.3734 39.8198 57.8914C10.4052 79.5562 0 46.6073 0 26.9923C0 7.37721 28.7686 0 39.8198 0C69.4345 -4.33547e-05 76.0377 20.5182 76.0377 40.1333Z" fill="#BBF8E5"/>
<path d="M52.5756 27.3936L52.534 27.3488L52.486 27.3072L39.5644 15.768C39.0556 15.272 38.39 15 37.6828 15C36.9756 15 36.31 15.272 35.8012 15.768L22.8796 27.3072L22.8316 27.3488L22.7868 27.3936C22.0092 28.1968 21.7852 29.384 22.2172 30.424C22.4188 30.9072 22.742 31.3168 23.158 31.6176C23.6156 31.944 24.2236 32.424 24.79 32.424V42.1808C24.79 43.6976 26.0764 44.968 27.5772 44.968H32.4572C33.958 44.968 35.2444 43.6976 35.2444 42.1808V36.6032H40.1212V42.1776C40.1212 43.6944 40.71 44.9648 42.2108 44.9648H47.7852C49.286 44.9648 50.5724 43.6944 50.5724 42.1776V32.4208L51.9676 31.7232C52.534 31.7232 51.7436 31.9408 52.2012 31.6144C52.6172 31.3168 52.9436 30.904 53.142 30.4208C53.5772 29.384 53.3532 28.1936 52.5756 27.3936ZM50.6396 30.3568H48.4924V42.2096C48.4924 42.76 47.638 42.872 47.094 42.872H43.6092C43.0652 42.872 42.214 42.7248 42.214 42.1744V34.5072H33.1548V42.1744C33.1548 42.7248 32.3036 42.872 31.7596 42.872H28.278C27.734 42.872 26.8828 42.7248 26.8828 42.1744V30.3312H24.7932C23.9164 30.3312 23.8076 28.8368 24.7932 28.2416L36.6396 17.7872C36.8316 17.5888 37.4812 17.0896 37.734 17.0896C37.9868 17.0896 38.5372 17.5888 38.7292 17.7872L50.5788 28.2416C51.4844 28.8368 51.5164 30.3568 50.6396 30.3568Z" fill="black"/>
</svg>
